<?xml version="1.0" standalone="no"?>
<!DOCTYPE svg PUBLIC "-//W3C//DTD SVG 1.1//EN" "http://www.w3.org/Graphics/SVG/1.1/DTD/svg11.dtd" >
<svg xmlns="http://www.w3.org/2000/svg">
<metadata></metadata>
<defs>
<font id="strongarmregular" horiz-adv-x="1100" >
<font-face units-per-em="2048" ascent="1638" descent="-410" />
<missing-glyph horiz-adv-x="761" />
<glyph unicode="&#xd;" horiz-adv-x="508" />
<glyph horiz-adv-x="0" />
<glyph horiz-adv-x="0" />
<glyph unicode=" "  horiz-adv-x="761" />
<glyph unicode="&#x09;" horiz-adv-x="761" />
<glyph unicode="&#xa0;" horiz-adv-x="761" />
<glyph unicode="!" horiz-adv-x="500" d="M0 0l1 399l399 1v-400h-400zM0 500l1 899l399 1v-900h-400z" />
<glyph unicode="&#x22;" horiz-adv-x="1000" d="M0 800l150 200h-150l1 399l399 1v-400l-150 -200h-250zM500 800l150 200h-150l1 399l399 1v-400l-150 -200h-250z" />
<glyph unicode="#" horiz-adv-x="1200" d="M0 250v400h101v100h-101v400h101v149l399 1v-150l101 -1v150l399 1v-151h100v-400h-100l1 -100h99v-400h-99v-150h-400v150l-100 1v-151h-400v151h-101zM500 750l1 -100l100 -1v100z" />
<glyph unicode="$" horiz-adv-x="1000" d="M0 50v400h500l-500 300v400l149 200h101v150h400v-150h250v-400l-500 1l500 -301v-400l-150 -200h-100v-150h-400v150h-250z" />
<glyph unicode="%" horiz-adv-x="1500" d="M-3 700v500l149 200h602l61 -82l41 82h400l-250 -500h251l150 -200l2 -500l-151 -200h-600l-62 81l-40 -81h-400l250 500h-251zM397 1001l2 -101h98v101h-100zM900 501l2 -101h98v101h-100z" />
<glyph unicode="&#x26;" d="M0 1200l150 200h350v-349h-100l1 -151h99v100h400v-100h100v-350h-100v-350l-150 -200h-599l-150 200v350l150 200l-150 150zM401 350h99v200h-99v-200z" />
<glyph unicode="'" horiz-adv-x="500" d="M0 800l150 200h-150l1 399l399 1v-400l-150 -200h-250z" />
<glyph unicode="(" horiz-adv-x="700" d="M0 100v1200l149 200h451v-400h-200v-800h200v-400h-450z" />
<glyph unicode=")" horiz-adv-x="700" d="M0 -100v400h200v800h-200v400h451l149 -200v-1200l-150 -200h-450z" />
<glyph unicode="*" horiz-adv-x="1400" d="M19 896l122 380l309 -101v325h400v-325l308 99l124 -379l-309 -100l190 -263l-322 -235l-191 263l-191 -262l-323 234l191 263z" />
<glyph unicode="+" horiz-adv-x="999" d="M-1 500v400h252v399l399 1v-400h249v-400h-249v-400h-400v400h-251z" />
<glyph unicode="," horiz-adv-x="500" d="M0 0l1 399l399 1v-400l-150 -200h-250l150 200h-150z" />
<glyph unicode="-" horiz-adv-x="999" d="M-1 500v400h900v-400h-900z" />
<glyph unicode="." horiz-adv-x="500" d="M0 0l1 399l399 1v-400h-400z" />
<glyph unicode="/" horiz-adv-x="1200" d="M0 0l700 1400h400l-700 -1400h-400z" />
<glyph unicode="0" d="M0 200v1000l149 200h701l150 -200v-1000l-151 -200h-699zM400 400h201l-1 601h-200v-601z" />
<glyph unicode="1" horiz-adv-x="650" d="M0 999v200l150 200l400 1v-1401l-400 1v1000z" />
<glyph unicode="2" horiz-adv-x="1000" d="M0 0v700l150 200h350v100h-500v400h750l150 -200v-500l-150 -200h-350v-101l500 1v-400h-900z" />
<glyph unicode="3" d="M-1 999l1 401h751l149 -200v-300l-150 -200l150 -200v-300l-150 -200h-750v400h500v100h-300v400h300v100z" />
<glyph unicode="4" d="M0 300v400l100 700h400l-100 -700h200v700h400v-1400h-400v300h-600z" />
<glyph unicode="5" horiz-adv-x="1000" d="M0 0v400h500v100h-500v900h900v-400l-500 1v-101h350l150 -200v-500l-150 -200h-750z" />
<glyph unicode="6" horiz-adv-x="1000" d="M0 200v1000l150 200h650v-350l-400 1v-101h350l150 -200v-550l-150 -200h-600zM400 400h100v150h-100v-150z" />
<glyph unicode="7" horiz-adv-x="1000" d="M0 1000v400h900v-400l-350 -1000h-450l350 1000h-450z" />
<glyph unicode="8" d="M0 1200l150 200h701l150 -200l-1 -300l-150 -150l150 -200v-350l-150 -200h-699l-150 200v350l150 200l-150 150zM400 1051l1 -151h199l1 151h-201zM401 350h199v200h-199v-200z" />
<glyph unicode="9" horiz-adv-x="1000" d="M0 650v550l150 200h600l150 -200v-1000l-150 -200h-650v351l400 -1v100h-350zM400 850h100v150h-100v-150z" />
<glyph unicode=":" horiz-adv-x="500" d="M0 0l1 399l399 1v-400h-400zM0 600l1 399l399 1v-400h-400z" />
<glyph unicode=";" horiz-adv-x="500" d="M0 0l1 399l399 1v-400l-150 -200h-250l150 200h-150zM0 600l1 399l399 1v-400h-400z" />
<glyph unicode="&#x3c;" horiz-adv-x="899" d="M0 700l400 601h400l-401 -600l400 -601h-400z" />
<glyph unicode="=" horiz-adv-x="999" d="M-1 200v400h900v-400h-900zM-1 700v400h900v-400h-900z" />
<glyph unicode="&#x3e;" horiz-adv-x="899" d="M0 1301h399l401 -601l-400 -600h-399l400 601z" />
<glyph unicode="?" horiz-adv-x="1000" d="M0 1050v350h751l149 -200v-450l-150 -200h-250v-50h-400v200l150 200h250v150h-500zM100 0l1 399l399 1v-400h-400z" />
<glyph unicode="@" horiz-adv-x="1000" d="M0 200v1000l149 200h601l150 -200v-750h-350l-150 200v-300h400v-350h-650zM400 850h100v200h-100v-200z" />
<glyph unicode="A" horiz-adv-x="1200" d="M0 0l250 1400h600l250 -1400h-650l71 400h108l-79 440l-150 -840h-400z" />
<glyph unicode="B" d="M-1 1400h852l150 -200l-1 -300l-150 -150l150 -200v-350l-150 -200h-850zM399 900h201l1 151h-200zM400 350h200v200h-200v-200z" />
<glyph unicode="C" horiz-adv-x="1000" d="M0 200v1000l149 200h751v-400l-500 1v-601h500v-400h-750z" />
<glyph unicode="D" d="M-1 1400h852l150 -200v-1000l-151 -200h-850zM401 400h201l-1 601h-200v-601z" />
<glyph unicode="E" d="M0 0l1 1400h999l-75 -400h-525v-100h500l-75 -400h-425v-100h400l-75 -400h-725z" />
<glyph unicode="F" d="M0 0l1 1400h999l-75 -400h-525v-100h500l-75 -400h-425v-500h-400z" />
<glyph unicode="G" horiz-adv-x="1000" d="M0 200v1000l149 200h751v-400l-500 1v-601h100v300h400v-700h-750z" />
<glyph unicode="H" d="M0 0v1400h400v-500h200v500h400v-1400h-400v500h-200v-500h-400z" />
<glyph unicode="I" horiz-adv-x="500" d="M0 0l1 1400l399 1v-1401h-400z" />
<glyph unicode="J" horiz-adv-x="800" d="M0 0v400h300v1000h400v-1200l-150 -200h-550z" />
<glyph unicode="K" horiz-adv-x="1200" d="M0 0l1 1400l399 1v-601l300 600h400l-350 -700l350 -700h-400l-300 600v-600h-400z" />
<glyph unicode="L" horiz-adv-x="900" d="M0 0l1 1400h399v-1000h400l-75 -400h-725z" />
<glyph unicode="M" horiz-adv-x="1600" d="M0 0l1 1400l399 1v-1h150l200 -600l200 600h151l399 1v-1401h-400v651l-150 -451h-400l-150 450v-650h-400z" />
<glyph unicode="N" horiz-adv-x="1300" d="M0 0l1 1400l399 1v-1l400 -650l1 649l399 1v-1401h-400v1l-400 650v-650h-400z" />
<glyph unicode="O" d="M0 200v1000l149 200h702l150 -200v-1000l-151 -200h-700zM400 400h202l-1 601h-201v-601z" />
<glyph unicode="P" d="M-1 1400h852l150 -200v-600l-151 -200h-450v-400h-400zM401 800h201l-1 201h-200v-201z" />
<glyph unicode="Q" d="M0 200v1000l149 200h702l150 -200v-1000l-31 -41l80 -159h-900zM400 400h50l-50 100v-100zM400 600h202l-1 401h-201v-401z" />
<glyph unicode="R" d="M-1 1400h852l150 -200v-600l-151 -200l200 -400h-400l-200 400h-50v-400h-400zM401 800h201l-1 201h-200v-201z" />
<glyph unicode="S" horiz-adv-x="1000" d="M0 0v400h500v50l-500 300v450l149 200h751v-400l-500 1v-51l500 -300v-450l-150 -200h-750z" />
<glyph unicode="T" horiz-adv-x="1000" d="M0 1000v400h900v-400h-250v-1000h-400v1000h-250z" />
<glyph unicode="U" d="M0 200v1201l400 -1v-1000h200v1000h400v-1200l-150 -200h-700z" />
<glyph unicode="V" horiz-adv-x="1200" d="M0 1400h400l150 -840l150 840h400l-250 -1400h-600z" />
<glyph unicode="W" horiz-adv-x="1800" d="M0 1400h400l100 -560l100 560h500l100 -560l100 560h400l-250 -1400h-500l-100 560l-100 -560h-500z" />
<glyph unicode="X" horiz-adv-x="1200" d="M0 0l350 700l-350 700h400l150 -300l150 300h400l-350 -700l350 -700h-400l-150 300l-150 -300h-400z" />
<glyph unicode="Y" horiz-adv-x="1200" d="M0 1400h400l150 -300l150 300h400l-350 -700v-700h-400v700z" />
<glyph unicode="Z" horiz-adv-x="1000" d="M0 0v500l450 500h-450v400h900v-500l-450 -500h450v-400h-900z" />
<glyph unicode="[" horiz-adv-x="700" d="M-1 1500h601v-400h-200v-800h200v-400h-600z" />
<glyph unicode="\" horiz-adv-x="1200" d="M0 1400h400l700 -1400h-400z" />
<glyph unicode="]" horiz-adv-x="700" d="M-1 -100v400h200v800h-200v400h601l-1 -1600h-600z" />
<glyph unicode="^" d="M0 1500l251 399l399 1h100l250 -400h-400l-100 160l-100 -160h-400z" />
<glyph unicode="_" d="M0 -100h1000v-350h-1000v350z" />
<glyph unicode="`" horiz-adv-x="800" d="M0 1900h500l200 -400h-300z" />
<glyph unicode="a" horiz-adv-x="980" d="M0 140l200 1120h480l200 -1120h-520l57 320h86l-63 352l-120 -672h-320z" />
<glyph unicode="b" horiz-adv-x="900" d="M-1 1260h682l120 -160l-1 -240l-120 -120l120 -160v-280l-120 -160h-680zM319 860h161v120h-159zM320 420h160v160h-160v-160z" />
<glyph unicode="c" horiz-adv-x="820" d="M0 300v800l119 160h601v-320l-400 1v-481h400v-320h-600z" />
<glyph unicode="d" horiz-adv-x="899" d="M-1 1260h682l120 -160v-800l-121 -160h-680zM321 460h160l-1 480h-159v-480z" />
<glyph unicode="e" horiz-adv-x="900" d="M0 140l1 1120h799l-60 -320h-420v-80h400l-60 -320h-340v-80h320l-60 -320h-580z" />
<glyph unicode="f" horiz-adv-x="900" d="M0 140l1 1120h799l-60 -320h-420v-80h400l-60 -320h-340v-400h-320z" />
<glyph unicode="g" horiz-adv-x="820" d="M0 300v800l119 160h601v-320l-400 1v-481h80v240h320v-560h-600z" />
<glyph unicode="h" horiz-adv-x="900" d="M0 140v1120h320v-400h160v400h320v-1120h-320v400h-160v-400h-320z" />
<glyph unicode="i" horiz-adv-x="421" d="M0 140l1 1120h319v-1120h-320z" />
<glyph unicode="j" horiz-adv-x="660" d="M0 140v320h240v800h320v-960l-120 -160h-440z" />
<glyph unicode="k" horiz-adv-x="980" d="M0 140l1 1120l319 1v-481l240 480h320l-280 -560l280 -560h-320l-240 480v-480h-320z" />
<glyph unicode="l" horiz-adv-x="740" d="M0 140l1 1120h319v-800h320l-60 -320h-580z" />
<glyph unicode="m" horiz-adv-x="1300" d="M0 140l1 1120l319 1v-1h120l160 -480l160 480h121l319 1v-1121h-320v521l-120 -361h-320l-120 360v-520h-320z" />
<glyph unicode="n" horiz-adv-x="1060" d="M0 140l1 1120l319 1v-1l320 -520l1 519l319 1v-1121h-320v1l-320 520v-520h-320z" />
<glyph unicode="o" horiz-adv-x="899" d="M0 300v800l119 160h562l120 -160v-800l-121 -160h-560zM320 460h161l-1 480h-160v-480z" />
<glyph unicode="p" horiz-adv-x="900" d="M-1 1260h682l120 -160v-480l-121 -160h-360v-320h-320zM321 780h160l-1 160h-159v-160z" />
<glyph unicode="q" horiz-adv-x="890" d="M0 300v800l119 160h562l120 -160v-800l-25 -33l64 -127h-720zM320 460h40l-40 80v-80zM320 620h161v321h-161v-321z" />
<glyph unicode="r" horiz-adv-x="890" d="M-1 1260h682l120 -160v-480l-121 -160l160 -320h-320l-160 320h-40v-320h-320zM321 780h160l-1 160h-159v-160z" />
<glyph unicode="s" horiz-adv-x="820" d="M0 140v320h400v40l-400 240v360l119 160h601v-320l-400 1v-41l400 -240v-360l-120 -160h-600z" />
<glyph unicode="t" horiz-adv-x="820" d="M0 940v320h720v-320h-200v-800h-320v800h-200z" />
<glyph unicode="u" horiz-adv-x="900" d="M0 300v961l320 -1v-800h160v800h320v-960l-120 -160h-560z" />
<glyph unicode="v" horiz-adv-x="980" d="M0 1260h320l120 -672l120 672h320l-200 -1120h-480z" />
<glyph unicode="w" horiz-adv-x="1460" d="M0 1260h320l80 -448l80 448h400l80 -448l80 448h320l-200 -1120h-400l-80 448l-80 -448h-400z" />
<glyph unicode="x" horiz-adv-x="980" d="M0 140l280 560l-280 560h320l120 -240l120 240h320l-280 -560l280 -560h-320l-120 240l-120 -240h-320z" />
<glyph unicode="y" horiz-adv-x="980" d="M0 1260h320l120 -240l120 240h320l-280 -560v-560h-320v560z" />
<glyph unicode="z" horiz-adv-x="820" d="M0 140v400l360 400h-360v320h720v-400l-360 -400h360v-320h-720z" />
<glyph unicode="{" horiz-adv-x="1500" d="M0 700q0 290 205 495t495 205t495 -205t205 -495t-205 -495t-495 -205t-495 205t-205 495zM25 700h100q0 40 5 79l-99 19q-6 -46 -6 -94v-4zM48 887l96 -35q25 93 81 173l-87 57q-62 -91 -90 -195zM150 700q0 -228 161 -389t389 -161t389 161t161 389t-161 389t-389 161 t-389 -161t-161 -389zM168 286q25 -32 55 -62q134 -135 306 -179l20 99q-143 37 -255 150q-21 21 -40 43zM268 1226l66 -82q97 82 215 112l-21 105q-144 -36 -260 -135zM295 999h105l24 -96l171 -84l30 -150h-165l-117 66zM355 699l60 -30l15 -75l90 -60v-255l-150 60z M379 879l6 -30l180 -75l-6 30zM394 807l6 -30l180 -75l-6 30zM430 984q105 60 255 60h30q150 0 255 -60l-15 -60q-47 -25 -255 -105q-208 80 -255 105zM550 264v270l75 60v-207h150v207l75 -60v-270l-39 -24l-30 105h-162l-30 -105zM607 204l30 114h126l30 -114h-186z M610 945l90 -51l90 51q-30 24 -75 24h-30q-45 0 -75 -24zM625 819l75 -30l75 30l-30 -165v-240h-90v240zM636 28q32 -3 64 -3t64 3l-11 99q-26 -2 -53 -2t-53 2zM636 1379l11 -106q26 2 53 2t53 -2l11 106q-31 3 -64 3t-64 -3zM775 669l30 150l171 84l24 96h105l-48 -264 l-117 -66h-165zM820 702l180 75l6 30l-180 -75zM835 774l180 75l6 30l-180 -75zM851 144l20 -99q141 36 258 134l-63 77q-98 -82 -215 -112zM851 1256q143 -37 256 -149q21 -21 40 -44l90 54q-27 35 -59 67q-134 134 -306 177zM880 279v255l90 60l15 75l60 30l-15 -360z M1175 375l84 -54q62 89 91 193l-94 34q-25 -93 -81 -173zM1270 621l98 -19q7 48 7 98h-100q0 -40 -5 -79z" />
<glyph unicode="|" horiz-adv-x="1500" d="M0 700q0 290 205 495t495 205t495 -205t205 -495t-205 -495t-495 -205t-495 205t-205 495zM25 700h100q0 40 5 79l-99 19q-6 -46 -6 -94v-4zM48 887l96 -35q25 93 81 173l-87 57q-62 -91 -90 -195zM150 700q0 -228 161 -389t389 -161t389 161t161 389t-161 389t-389 161 t-389 -161t-161 -389zM168 286q25 -32 55 -62q134 -135 306 -179l20 99q-143 37 -255 150q-21 21 -40 43zM268 1226l66 -82q97 82 215 112l-21 105q-144 -36 -260 -135zM317 785q0 44 36 90q-6 -24 -6 -36v-24q0 -37 66 -75h36q-30 30 -45 60q-27 45 -27 135q0 60 51 165 q-9 -45 -9 -90q4 -70 39 -120l165 -75l45 -150v-75l30 -30l30 30v75l45 150l165 75q36 44 36 120q0 45 -6 90q51 -105 51 -165q0 -91 -30 -135q-16 -30 -36 -60h45q51 39 51 75v24q0 11 -6 36q36 -45 36 -90q0 -60 -36 -90l-90 -81h-39l-96 -24l-45 -69v-45l-51 -30l-24 -45 l-24 45l-51 30v45l-45 69l-96 24h-39l-90 81q-36 30 -36 90zM443 530q30 30 39 69l87 -18l39 -60q-30 -31 -30 -51v-9q0 -21 45 -30h15l23 -79l28 37l-21 -204q-14 111 -30 135q-30 51 -68 76q-21 14 -37 14q-22 0 -45 -15q45 60 45 90q0 51 -69 51q-6 0 -21 -6zM533 641 l96 -51l9 -15v37l-39 47l-66 30v-48zM635 539l10 -15v-15l23 -10l15 -14l-15 39zM636 28q32 -3 64 -3t64 3l-11 99q-26 -2 -53 -2t-53 2zM636 1379l11 -106q26 2 53 2t53 -2l11 106q-31 3 -64 3t-64 -3zM677 599l21 186l21 -186l-21 -21zM707 389l27 -39l24 81h15 q45 8 45 30v9q0 21 -30 51l39 60l87 18q9 -39 39 -69q-15 6 -21 6q-69 0 -69 -51q0 -30 45 -90q-23 15 -45 15q-15 0 -36 -15q-39 -24 -69 -75q-15 -24 -30 -135zM713 485l15 15l23 9v15l10 15l-33 -15zM758 575l10 15l95 51v48l-66 -30l-39 -47v-37zM851 144l20 -99 q141 36 258 134l-63 77q-98 -82 -215 -112zM851 1256q143 -37 256 -149q21 -21 40 -44l90 54q-27 35 -59 67q-134 134 -306 177zM1175 375l84 -54q62 89 91 193l-94 34q-25 -93 -81 -173zM1270 621l98 -19q7 48 7 98h-100q0 -40 -5 -79z" />
<glyph unicode="}" horiz-adv-x="1500" d="M0 700q0 290 205 495t495 205t495 -205t205 -495t-205 -495t-495 -205t-495 205t-205 495zM25 700h100q0 40 5 79l-99 19q-6 -46 -6 -94v-4zM48 887l96 -35q25 93 81 173l-87 57q-62 -91 -90 -195zM150 700q0 -228 161 -389t389 -161t389 161t161 389t-161 389t-389 161 t-389 -161t-161 -389zM168 286q25 -32 55 -62q134 -135 306 -179l20 99q-143 37 -255 150q-21 21 -40 43zM268 1226l66 -82q97 82 215 112l-21 105q-144 -36 -260 -135zM280 1030l75 -90l210 -75l6 -51l-177 57l6 -39l180 -57l6 -51l-178 60l7 -36l180 -63l105 -90l105 90 l180 63l7 36l-178 -60l6 51l180 57l6 39l-177 -57l6 51l210 75l75 90l-46 -329l-374 -511l-374 511zM340 625l316 -435l-287 135zM430 640l165 -180l51 114l-216 75v-9zM580 1060l75 -135h90l75 135l-45 -360l-73 -61l-2 2l-2 -2l-73 61zM636 28q32 -3 64 -3t64 3l-11 99 q-26 -2 -53 -2t-53 2zM636 1379l11 -106q26 2 53 2t53 -2l11 106q-31 3 -64 3t-64 -3zM662 851l38 -122l38 122h-76zM744 190l316 435l-29 -300zM754 574l51 -114l165 180v9zM851 144l20 -99q141 36 258 134l-63 77q-98 -82 -215 -112zM851 1256q143 -37 256 -149 q21 -21 40 -44l90 54q-27 35 -59 67q-134 134 -306 177zM1175 375l84 -54q62 89 91 193l-94 34q-25 -93 -81 -173zM1270 621l98 -19q7 48 7 98h-100q0 -40 -5 -79z" />
<glyph unicode="~" horiz-adv-x="1000" d="M0 1500v200l150 200h350v50h400v-200l-150 -200h-350v-50h-400z" />
<glyph unicode="&#xa1;" horiz-adv-x="500" d="M0 0v899l400 1l-1 -899zM0 1000v399l400 1l-1 -399z" />
<glyph unicode="&#xa2;" horiz-adv-x="1000" d="M0 250v700l149 200h151v150h400v-150h200v-400l-500 1v-301h500v-400h-200v-150h-400v150h-150z" />
<glyph unicode="&#xa3;" horiz-adv-x="1000" d="M0 0v400h100v100h-100v400h100v300l149 200h651v-400l-400 1v-101h200v-400h-200v-100h400v-400h-900z" />
<glyph unicode="&#xa4;" horiz-adv-x="1200" d="M0 0l140 280l-90 120v600l90 120l-140 280h400l100 -200h100l100 200h400l-140 -280l90 -120v-600l-90 -120l140 -280h-400l-100 200h-100l-100 -200h-400zM450 600h201l-1 201h-200v-201z" />
<glyph unicode="&#xa5;" horiz-adv-x="1200" d="M0 1400h400l150 -300l150 300h400l-200 -400h100v-400h-250v-100h250v-400h-250v-100h-400v100h-250v400h250v100h-250v400h100z" />
<glyph unicode="&#xa6;" horiz-adv-x="500" d="M0 -100l1 750h399v-750h-400zM1 750v750l399 1v-751h-399z" />
<glyph unicode="&#xa7;" d="M0 400v600l50 67v233l149 200h751v-400h-25l75 -100v-600l-50 -66v-234l-150 -200h-750v400h25zM400 600h201l-1 201h-200v-201z" />
<glyph unicode="&#xa8;" horiz-adv-x="1000" d="M0 1500l1 399l399 1v-400h-400zM500 1500l1 399l399 1v-400h-400z" />
<glyph unicode="&#xa9;" horiz-adv-x="1050" d="M0 1050q0 207 139 353.5t336 146.5t336 -146.5t139 -353.5t-139 -353.5t-336 -146.5t-336 146.5t-139 353.5zM50 1050q0 -186 124.5 -318t300.5 -132t300.5 132t124.5 318t-124.5 318t-300.5 132t-300.5 -132t-124.5 -318zM250 800v500l75 100h375v-200l-250 1v-301h250 v-200h-375z" />
<glyph unicode="&#xaa;" horiz-adv-x="1650" d="M0 200v1100q0 200 200 200h1100q200 0 200 -200v-1100q0 -200 -200 -200h-1100q-200 0 -200 200zM25 200q1 -175 175 -175h1101q174 0 174 176v1099q0 175 -175 175h-1100q-174 0 -175 -175v-1100z" />
<glyph unicode="&#xab;" horiz-adv-x="1499" d="M0 700l400 601h400l-401 -600l400 -601h-400zM599 700l400 601h400l-401 -600l400 -601h-400z" />
<glyph unicode="&#xac;" horiz-adv-x="1650" d="M0 200v1100q0 200 200 200h1100q200 0 200 -200v-1100q0 -200 -200 -200h-1100q-200 0 -200 200zM25 200q1 -175 175 -175h1101q174 0 174 176v1099q0 175 -175 175h-1100q-174 0 -175 -175v-1100z" />
<glyph unicode="&#xad;" horiz-adv-x="999" d="M-1 500v400h900v-400h-900z" />
<glyph unicode="&#xae;" horiz-adv-x="1050" d="M0 1050q0 207 139 353.5t336 146.5t336 -146.5t139 -353.5t-139 -353.5t-336 -146.5t-336 146.5t-139 353.5zM50 1050q0 -186 124.5 -318t300.5 -132t300.5 132t124.5 318t-124.5 318t-300.5 132t-300.5 -132t-124.5 -318zM215 1400h426l75 -100v-300l-75 -100l100 -200 h-200l-100 200h-25v-200h-200zM416 1100h100v100h-100v-100z" />
<glyph unicode="&#xaf;" horiz-adv-x="1650" d="M0 200v1100q0 200 200 200h1100q200 0 200 -200v-1100q0 -200 -200 -200h-1100q-200 0 -200 200zM25 200q1 -175 175 -175h1101q174 0 174 176v1099q0 175 -175 175h-1100q-174 0 -175 -175v-1100z" />
<glyph unicode="&#xb0;" horiz-adv-x="674" d="M76 1478q0 148 103.5 250.5t251.5 102.5q146 0 248.5 -103.5t102.5 -249.5q0 -144 -104 -248.5t-250 -104.5q-149 0 -250.5 103t-101.5 250zM165 1477q0 -110 77.5 -186.5t188.5 -76.5q110 0 186 76.5t76 186.5q0 111 -76.5 188t-185.5 77q-110 0 -188 -77t-78 -188z" />
<glyph unicode="&#xb1;" horiz-adv-x="1650" d="M0 200v1100q0 200 200 200h1100q200 0 200 -200v-1100q0 -200 -200 -200h-1100q-200 0 -200 200zM25 200q1 -175 175 -175h1101q174 0 174 176v1099q0 175 -175 175h-1100q-174 0 -175 -175v-1100z" />
<glyph unicode="&#xb2;" horiz-adv-x="1650" d="M0 200v1100q0 200 200 200h1100q200 0 200 -200v-1100q0 -200 -200 -200h-1100q-200 0 -200 200zM25 200q1 -175 175 -175h1101q174 0 174 176v1099q0 175 -175 175h-1100q-174 0 -175 -175v-1100z" />
<glyph unicode="&#xb3;" horiz-adv-x="1650" d="M0 200v1100q0 200 200 200h1100q200 0 200 -200v-1100q0 -200 -200 -200h-1100q-200 0 -200 200zM25 200q1 -175 175 -175h1101q174 0 174 176v1099q0 175 -175 175h-1100q-174 0 -175 -175v-1100z" />
<glyph unicode="&#xb4;" horiz-adv-x="800" d="M0 1500l200 400h500l-400 -400h-300z" />
<glyph unicode="&#xb5;" horiz-adv-x="900" d="M0 60v1201l320 -1v-800h160v800h320v-960l-120 -160h-360v-79z" />
<glyph unicode="&#xb6;" horiz-adv-x="1024" d="M118 1379q0 200 136.5 321.5t362.5 121.5h563v-88h-161v-1734h-105v1734h-210v-1734h-107v937q-221 10 -350 130t-129 312z" />
<glyph unicode="&#xb7;" horiz-adv-x="500" d="M0 600l1 399l399 1v-400h-400z" />
<glyph unicode="&#xb8;" horiz-adv-x="650" d="M0 -200l150 200v400h400v-400l-150 -200h-400z" />
<glyph unicode="&#xb9;" horiz-adv-x="1650" d="M0 200v1100q0 200 200 200h1100q200 0 200 -200v-1100q0 -200 -200 -200h-1100q-200 0 -200 200zM25 200q1 -175 175 -175h1101q174 0 174 176v1099q0 175 -175 175h-1100q-174 0 -175 -175v-1100z" />
<glyph unicode="&#xba;" horiz-adv-x="1650" d="M0 200v1100q0 200 200 200h1100q200 0 200 -200v-1100q0 -200 -200 -200h-1100q-200 0 -200 200zM25 200q1 -175 175 -175h1101q174 0 174 176v1099q0 175 -175 175h-1100q-174 0 -175 -175v-1100z" />
<glyph unicode="&#xbb;" horiz-adv-x="1499" d="M0 1301h399l401 -601l-400 -600h-399l400 601zM599 1301h399l401 -601l-400 -600h-399l400 601z" />
<glyph unicode="&#xbc;" horiz-adv-x="1650" d="M0 200v1100q0 200 200 200h1100q200 0 200 -200v-1100q0 -200 -200 -200h-1100q-200 0 -200 200zM25 200q1 -175 175 -175h1101q174 0 174 176v1099q0 175 -175 175h-1100q-174 0 -175 -175v-1100z" />
<glyph unicode="&#xbd;" horiz-adv-x="1650" d="M0 200v1100q0 200 200 200h1100q200 0 200 -200v-1100q0 -200 -200 -200h-1100q-200 0 -200 200zM25 200q1 -175 175 -175h1101q174 0 174 176v1099q0 175 -175 175h-1100q-174 0 -175 -175v-1100z" />
<glyph unicode="&#xbe;" horiz-adv-x="1650" d="M0 200v1100q0 200 200 200h1100q200 0 200 -200v-1100q0 -200 -200 -200h-1100q-200 0 -200 200zM25 200q1 -175 175 -175h1101q174 0 174 176v1099q0 175 -175 175h-1100q-174 0 -175 -175v-1100z" />
<glyph unicode="&#xbf;" horiz-adv-x="1000" d="M0 200v450l150 200h250v50h400v-200l-150 -200h-250v-150h500v-350h-751zM400 1000v400h400l-1 -399z" />
<glyph unicode="&#xc0;" horiz-adv-x="1200" d="M0 0l250 1400h600l250 -1400h-650l71 400h108l-79 440l-150 -840h-400zM200 1900h500l200 -400h-300z" />
<glyph unicode="&#xc1;" horiz-adv-x="1200" d="M0 0l250 1400h600l250 -1400h-650l71 400h108l-79 440l-150 -840h-400zM200 1500l200 400h500l-400 -400h-300z" />
<glyph unicode="&#xc2;" horiz-adv-x="1200" d="M0 0l250 1400h600l250 -1400h-650l71 400h108l-79 440l-150 -840h-400zM50 1500l251 399l399 1h100l250 -400h-400l-100 160l-100 -160h-400z" />
<glyph unicode="&#xc3;" horiz-adv-x="1200" d="M0 0l250 1400h600l250 -1400h-650l71 400h108l-79 440l-150 -840h-400zM100 1500v200l150 200h350v50h400v-200l-150 -200h-350v-50h-400z" />
<glyph unicode="&#xc4;" horiz-adv-x="1200" d="M0 0l250 1400h600l250 -1400h-650l71 400h108l-79 440l-150 -840h-400zM100 1500l1 399l399 1v-400h-400zM600 1500l1 399l399 1v-400h-400z" />
<glyph unicode="&#xc5;" horiz-adv-x="1200" d="M0 0l250 1400h600l250 -1400h-650l71 400h108l-79 440l-150 -840h-400zM300 1700v100l150 200h200l150 -200v-100l-150 -200h-200z" />
<glyph unicode="&#xc6;" horiz-adv-x="1800" d="M0 0l250 1400h1450l-75 -400h-525v-100h500l-75 -400h-425v-100h400l-75 -400h-975l71 400h108l-79 440l-150 -840h-400z" />
<glyph unicode="&#xc7;" horiz-adv-x="1000" d="M0 200v1000l149 200h751v-400l-500 1v-601h500v-400h-100l-150 -200h-400l150 200h-250z" />
<glyph unicode="&#xc8;" d="M0 0l1 1400h999l-75 -400h-525v-100h500l-75 -400h-425v-100h400l-75 -400h-725zM150 1900h500l200 -400h-300z" />
<glyph unicode="&#xc9;" d="M0 0l1 1400h999l-75 -400h-525v-100h500l-75 -400h-425v-100h400l-75 -400h-725zM150 1500l200 400h500l-400 -400h-300z" />
<glyph unicode="&#xca;" d="M0 0l1 1400h999l-75 -400h-525v-100h500l-75 -400h-425v-100h400l-75 -400h-725zM0 1500l251 399l399 1h100l250 -400h-400l-100 160l-100 -160h-400z" />
<glyph unicode="&#xcb;" d="M0 0l1 1400h999l-75 -400h-525v-100h500l-75 -400h-425v-100h400l-75 -400h-725zM50 1500l1 399l399 1v-400h-400zM550 1500l1 399l399 1v-400h-400z" />
<glyph unicode="&#xcc;" horiz-adv-x="500" d="M-150 1900h500l200 -400h-300zM0 0l1 1400l399 1v-1401h-400z" />
<glyph unicode="&#xcd;" horiz-adv-x="500" d="M-150 1500l200 400h500l-400 -400h-300zM0 0l1 1400l399 1v-1401h-400z" />
<glyph unicode="&#xce;" horiz-adv-x="500" d="M-300 1500l251 399l399 1h100l250 -400h-400l-100 160l-100 -160h-400zM0 0l1 1400l399 1v-1401h-400z" />
<glyph unicode="&#xcf;" horiz-adv-x="500" d="M-250 1500l1 399l399 1v-400h-400zM0 0l1 1400l399 1v-1401h-400zM250 1500l1 399l399 1v-400h-400z" />
<glyph unicode="&#xd0;" horiz-adv-x="1200" d="M0 500v400h99v500h851l150 -200v-1000l-151 -200h-849v500h-100zM501 400h199v601h-199v-101h99v-400h-99v-100z" />
<glyph unicode="&#xd1;" horiz-adv-x="1300" d="M0 0l1 1400l399 1v-1l400 -650l1 649l399 1v-1401h-400v1l-400 650v-650h-400zM150 1500v200l150 200h350v50h400v-200l-150 -200h-350v-50h-400z" />
<glyph unicode="&#xd2;" d="M0 200v1000l149 200h702l150 -200v-1000l-151 -200h-700zM150 1900h500l200 -400h-300zM400 400h202l-1 601h-201v-601z" />
<glyph unicode="&#xd3;" d="M0 200v1000l149 200h702l150 -200v-1000l-151 -200h-700zM150 1500l200 400h500l-400 -400h-300zM400 400h202l-1 601h-201v-601z" />
<glyph unicode="&#xd4;" d="M0 200v1000l149 200h702l150 -200v-1000l-151 -200h-700zM0 1500l251 399l399 1h100l250 -400h-400l-100 160l-100 -160h-400zM400 400h202l-1 601h-201v-601z" />
<glyph unicode="&#xd5;" d="M0 200v1000l149 200h702l150 -200v-1000l-151 -200h-700zM50 1500v200l150 200h350v50h400v-200l-150 -200h-350v-50h-400zM400 400h202l-1 601h-201v-601z" />
<glyph unicode="&#xd6;" d="M0 200v1000l149 200h702l150 -200v-1000l-151 -200h-700zM50 1500l1 399l399 1v-400h-400zM400 400h202l-1 601h-201v-601zM550 1500l1 399l399 1v-400h-400z" />
<glyph unicode="&#xd7;" horiz-adv-x="999" d="M-1 200l250 500l-250 500h400l50 -100l50 100h400l-250 -500l250 -500h-400l-50 100l-50 -100h-400z" />
<glyph unicode="&#xd8;" d="M0 200v1000l149 200h702l150 -200v-1000l-151 -200h-700zM400 817l158 184h-158v-184zM443 400h159v185z" />
<glyph unicode="&#xd9;" d="M0 200v1201l400 -1v-1000h200v1000h400v-1200l-150 -200h-700zM150 1900h500l200 -400h-300z" />
<glyph unicode="&#xda;" d="M0 200v1201l400 -1v-1000h200v1000h400v-1200l-150 -200h-700zM150 1500l200 400h500l-400 -400h-300z" />
<glyph unicode="&#xdb;" d="M0 200v1201l400 -1v-1000h200v1000h400v-1200l-150 -200h-700zM0 1500l251 399l399 1h100l250 -400h-400l-100 160l-100 -160h-400z" />
<glyph unicode="&#xdc;" d="M0 200v1201l400 -1v-1000h200v1000h400v-1200l-150 -200h-700zM50 1500l1 399l399 1v-400h-400zM550 1500l1 399l399 1v-400h-400z" />
<glyph unicode="&#xdd;" horiz-adv-x="1200" d="M0 1400h400l150 -300l150 300h400l-350 -700v-700h-400v700zM200 1500l200 400h500l-400 -400h-300z" />
<glyph unicode="&#xde;" d="M0 0v1400h400v-100h450l151 -200v-800l-151 -200h-450v-100h-400zM401 500h201l-1 401h-200v-401z" />
<glyph unicode="&#xdf;" d="M0 0v1200l150 200h701l150 -200l-1 -300l-150 -150l150 -200v-350l-150 -200h-350v350h100v200h-100v350h100l1 151h-201v-1051h-400z" />
<glyph unicode="&#xe0;" horiz-adv-x="980" d="M0 140l200 1120h480l200 -1120h-520l57 320h86l-63 352l-120 -672h-320zM160 1660h400l160 -320h-240z" />
<glyph unicode="&#xe1;" horiz-adv-x="980" d="M0 140l200 1120h480l200 -1120h-520l57 320h86l-63 352l-120 -672h-320zM160 1340l160 320h400l-320 -320h-240z" />
<glyph unicode="&#xe2;" horiz-adv-x="980" d="M0 140l200 1120h480l200 -1120h-520l57 320h86l-63 352l-120 -672h-320zM40 1340l201 319l319 1h80l200 -320h-320l-80 128l-80 -128h-320z" />
<glyph unicode="&#xe3;" horiz-adv-x="980" d="M0 140l200 1120h480l200 -1120h-520l57 320h86l-63 352l-120 -672h-320zM80 1340v160l120 160h280v40h320v-160l-120 -160h-280v-40h-320z" />
<glyph unicode="&#xe4;" horiz-adv-x="980" d="M0 140l200 1120h480l200 -1120h-520l57 320h86l-63 352l-120 -672h-320zM80 1340l1 319l319 1v-320h-320zM480 1340l1 319l319 1v-320h-320z" />
<glyph unicode="&#xe5;" horiz-adv-x="980" d="M0 140l200 1120h480l200 -1120h-520l57 320h86l-63 352l-120 -672h-320zM240 1500v80l120 160h160l120 -160v-80l-120 -160h-160z" />
<glyph unicode="&#xe6;" horiz-adv-x="1460" d="M0 140l200 1120h1160l-60 -320h-420v-80h400l-60 -320h-340v-80h320l-60 -320h-780l57 320h86l-63 352l-120 -672h-320z" />
<glyph unicode="&#xe7;" horiz-adv-x="820" d="M0 300v800l119 160h601v-320l-400 1v-481h400v-320h-80l-120 -160h-320l120 160h-200z" />
<glyph unicode="&#xe8;" horiz-adv-x="900" d="M0 140l1 1120h799l-60 -320h-420v-80h400l-60 -320h-340v-80h320l-60 -320h-580zM120 1660h400l160 -320h-240z" />
<glyph unicode="&#xe9;" horiz-adv-x="900" d="M0 140l1 1120h799l-60 -320h-420v-80h400l-60 -320h-340v-80h320l-60 -320h-580zM120 1340l160 320h400l-320 -320h-240z" />
<glyph unicode="&#xea;" horiz-adv-x="900" d="M0 140l1 1120h799l-60 -320h-420v-80h400l-60 -320h-340v-80h320l-60 -320h-580zM0 1340l201 319l319 1h80l200 -320h-320l-80 128l-80 -128h-320z" />
<glyph unicode="&#xeb;" horiz-adv-x="900" d="M0 140l1 1120h799l-60 -320h-420v-80h400l-60 -320h-340v-80h320l-60 -320h-580zM40 1340l1 319l319 1v-320h-320zM440 1340l1 319l319 1v-320h-320z" />
<glyph unicode="&#xec;" horiz-adv-x="360" d="M-150 1660h400l160 -320h-240zM-30 140l1 1120h319v-1120h-320z" />
<glyph unicode="&#xed;" horiz-adv-x="360" d="M-150 1340l160 320h400l-320 -320h-240zM-30 140l1 1120h319v-1120h-320z" />
<glyph unicode="&#xee;" horiz-adv-x="300" d="M-300 1340l201 319l319 1h80l200 -320h-320l-80 128l-80 -128h-320zM-60 140l1 1120h319v-1120h-320z" />
<glyph unicode="&#xef;" horiz-adv-x="321" d="M-250 1340l1 319l319 1v-320h-320zM-50 140l1 1120h319v-1120h-320zM150 1340l1 319l319 1v-320h-320z" />
<glyph unicode="&#xf0;" horiz-adv-x="980" d="M0 540v320h79v400h681l120 -160v-800l-121 -160h-679v400h-80zM401 460h159v481h-159v-81h79v-320h-79v-80z" />
<glyph unicode="&#xf1;" horiz-adv-x="1060" d="M0 140l1 1120l319 1v-1l320 -520l1 519l319 1v-1121h-320v1l-320 520v-520h-320zM120 1340v160l120 160h280v40h320v-160l-120 -160h-280v-40h-320z" />
<glyph unicode="&#xf2;" horiz-adv-x="899" d="M0 300v800l119 160h562l120 -160v-800l-121 -160h-560zM120 1660h400l160 -320h-240zM320 460h161l-1 480h-160v-480z" />
<glyph unicode="&#xf3;" horiz-adv-x="899" d="M0 300v800l119 160h562l120 -160v-800l-121 -160h-560zM120 1340l160 320h400l-320 -320h-240zM320 460h161l-1 480h-160v-480z" />
<glyph unicode="&#xf4;" horiz-adv-x="900" d="M0 300v800l119 160h562l120 -160v-800l-121 -160h-560zM0 1340l201 319l319 1h80l200 -320h-320l-80 128l-80 -128h-320zM320 460h161l-1 480h-160v-480z" />
<glyph unicode="&#xf5;" horiz-adv-x="899" d="M0 300v800l119 160h562l120 -160v-800l-121 -160h-560zM40 1340v160l120 160h280v40h320v-160l-120 -160h-280v-40h-320zM320 460h161l-1 480h-160v-480z" />
<glyph unicode="&#xf6;" horiz-adv-x="899" d="M0 300v800l119 160h562l120 -160v-800l-121 -160h-560zM40 1340l1 319l319 1v-320h-320zM320 460h161l-1 480h-160v-480zM440 1340l1 319l319 1v-320h-320z" />
<glyph unicode="&#xf7;" horiz-adv-x="999" d="M-1 500v400h900v-400h-900zM249 0l1 399l399 1v-400h-400zM249 1000l1 399l399 1v-400h-400z" />
<glyph unicode="&#xf8;" horiz-adv-x="900" d="M0 300v800l119 160h562l120 -160v-800l-121 -160h-560zM320 793l126 148h-126v-148zM354 460h128l-1 148z" />
<glyph unicode="&#xf9;" horiz-adv-x="900" d="M0 300v961l320 -1v-800h160v800h320v-960l-120 -160h-560zM120 1660h400l160 -320h-240z" />
<glyph unicode="&#xfa;" horiz-adv-x="900" d="M0 300v961l320 -1v-800h160v800h320v-960l-120 -160h-560zM120 1340l160 320h400l-320 -320h-240z" />
<glyph unicode="&#xfb;" horiz-adv-x="900" d="M0 300v961l320 -1v-800h160v800h320v-960l-120 -160h-560zM0 1340l201 319l319 1h80l200 -320h-320l-80 128l-80 -128h-320z" />
<glyph unicode="&#xfc;" horiz-adv-x="900" d="M0 300v961l320 -1v-800h160v800h320v-960l-120 -160h-560zM40 1340l1 319l319 1v-320h-320zM440 1340l1 319l319 1v-320h-320z" />
<glyph unicode="&#xfd;" horiz-adv-x="980" d="M0 1260h320l120 -240l120 240h320l-280 -560v-560h-320v560zM160 1340l160 320h400l-320 -320h-240z" />
<glyph unicode="&#xfe;" horiz-adv-x="900" d="M0 140v1120h320v-80h360l121 -160v-640l-121 -160h-360v-80h-320zM321 540h160l-1 320h-159v-320z" />
<glyph unicode="&#xff;" horiz-adv-x="980" d="M0 1260h320l120 -240l120 240h320l-280 -560v-560h-320v560zM80 1340l1 319l319 1v-320h-320zM480 1340l1 319l319 1v-320h-320z" />
<glyph unicode="&#x152;" horiz-adv-x="1700" d="M0 200v1000l149 200h1451l-75 -400h-524v-100h499l-75 -400h-424v-100h399l-75 -400h-1175zM400 400h202l-1 601h-201v-601z" />
<glyph unicode="&#x153;" horiz-adv-x="1380" d="M0 300v800l119 160h1161l-60 -320h-419v-80h399l-60 -320h-339v-80h319l-60 -320h-940zM320 460h161l-1 480h-160v-480z" />
<glyph unicode="&#x2c6;" d="M0 1500l251 399l399 1h100l250 -400h-400l-100 160l-100 -160h-400z" />
<glyph unicode="&#x2dc;" horiz-adv-x="1000" d="M0 1500v200l150 200h350v50h400v-200l-150 -200h-350v-50h-400z" />
<glyph unicode="&#x2000;" horiz-adv-x="1000" />
<glyph unicode="&#x2001;" horiz-adv-x="2000" />
<glyph unicode="&#x2002;" horiz-adv-x="1000" />
<glyph unicode="&#x2003;" horiz-adv-x="2000" />
<glyph unicode="&#x2004;" horiz-adv-x="666" />
<glyph unicode="&#x2005;" horiz-adv-x="500" />
<glyph unicode="&#x2006;" horiz-adv-x="333" />
<glyph unicode="&#x2007;" horiz-adv-x="333" />
<glyph unicode="&#x2008;" horiz-adv-x="250" />
<glyph unicode="&#x2009;" horiz-adv-x="400" />
<glyph unicode="&#x200a;" horiz-adv-x="111" />
<glyph unicode="&#x2010;" horiz-adv-x="999" d="M-1 500v400h900v-400h-900z" />
<glyph unicode="&#x2011;" horiz-adv-x="999" d="M-1 500v400h900v-400h-900z" />
<glyph unicode="&#x2012;" horiz-adv-x="999" d="M-1 500v400h900v-400h-900z" />
<glyph unicode="&#x2013;" horiz-adv-x="1099" d="M-1 500v400h1000v-400h-1000z" />
<glyph unicode="&#x2014;" horiz-adv-x="1199" d="M-1 500v400h1099v-400h-1099z" />
<glyph unicode="&#x2018;" horiz-adv-x="500" d="M0 800v400l150 200h250l-150 -200h150l-1 -399z" />
<glyph unicode="&#x2019;" horiz-adv-x="500" d="M0 800l150 200h-150l1 399l399 1v-400l-150 -200h-250z" />
<glyph unicode="&#x201a;" horiz-adv-x="500" d="M0 0l1 399l399 1v-400l-150 -200h-250l150 200h-150z" />
<glyph unicode="&#x201c;" horiz-adv-x="1000" d="M0 800v400l150 200h250l-150 -200h150l-1 -399zM500 800v400l150 200h250l-150 -200h150l-1 -399z" />
<glyph unicode="&#x201d;" horiz-adv-x="1000" d="M0 800l150 200h-150l1 399l399 1v-400l-150 -200h-250zM500 800l150 200h-150l1 399l399 1v-400l-150 -200h-250z" />
<glyph unicode="&#x201e;" horiz-adv-x="1000" d="M0 0l1 399l399 1v-400l-150 -200h-250l150 200h-150zM500 0l1 399l399 1v-400l-150 -200h-250l150 200h-150z" />
<glyph unicode="&#x2022;" horiz-adv-x="1024" d="M274 912q0 156 110.5 265.5t267.5 109.5q154 0 264 -110t110 -265t-111 -266t-266 -111q-156 0 -265.5 110.5t-109.5 266.5z" />
<glyph unicode="&#x2026;" horiz-adv-x="1500" d="M0 0l1 399l399 1v-400h-400zM500 0l1 399l399 1v-400h-400zM1000 0l1 399l399 1v-400h-400z" />
<glyph unicode="&#x202f;" horiz-adv-x="400" />
<glyph unicode="&#x2039;" horiz-adv-x="899" d="M0 700l400 601h400l-401 -600l400 -601h-400z" />
<glyph unicode="&#x203a;" horiz-adv-x="899" d="M0 1301h399l401 -601l-400 -600h-399l400 601z" />
<glyph unicode="&#x205f;" horiz-adv-x="500" />
<glyph unicode="&#x20ac;" horiz-adv-x="1000" d="M0 500v400h100v300l149 200h651v-400l-400 1v-101h200v-400h-200v-100h400v-400h-650l-150 200v300h-100z" />
<glyph unicode="&#x2122;" horiz-adv-x="1350" d="M0 1201v200h450v-200h-125v-500h-200v500h-125zM500 701l1 700h274l100 -300l100 300h275v-700h-200v325l-75 -225h-200l-75 225v-325h-200z" />
<glyph unicode="&#x25fc;" horiz-adv-x="1260" d="M0 0v1260h1260v-1260h-1260z" />
</font>
</defs>
</svg>
